<svg
	xmlns="http://www.w3.org/2000/svg"
	version="1.1"
	xmlns:xlink="http://www.w3.org/1999/xlink"
	xmlns:svgjs="http://svgjs.com/svgjs"
	width="512"
	height="512"
	x="0"
	y="0"
	viewBox="0 0 511 511.999"
	style="enable-background:new 0 0 512 512"
	xml:space="preserve"
	class=""
>
	<g>
		<path
			fill="#f2f2f2"
			d="M151.773 7.605h352.98V287.91h-352.98zm0 0"
			data-original="#f2f2f2"
		></path>
		<path
			fill="#4d5160"
			d="M19.574 192.93h258.36v180.382H19.574zm0 0"
			data-original="#4d5160"
		></path>
		<path
			fill="#4d5160"
			d="m8.105 130.445 254.122-46.66 11.472 62.492-254.12 46.66zm0 0"
			data-original="#4d5160"
		></path>
		<path
			fill="#f2f2f2"
			d="m103.758 177.473-51.961 9.539 22.3-68.688 51.966-9.543zM207.688 158.39l-51.965 9.544 22.304-68.692 51.965-9.539zm0 0"
			data-original="#f2f2f2"
		></path>
		<path
			fill="#fce06d"
			d="M155.387 321.8c-12.766-12.765-12.766-33.46 0-46.226 8.308-8.308 19.976-11.203 30.633-8.695a32.537 32.537 0 0 1 9.117-17.723c9.308-9.308 22.836-11.82 34.43-7.55a32.665 32.665 0 0 1 5.32-6.993c11.734-11.734 30.172-12.672 42.988-2.832 12.816-9.84 31.254-8.906 42.988 2.832a32.665 32.665 0 0 1 5.32 6.992c11.594-4.27 25.122-1.757 34.43 7.551a32.512 32.512 0 0 1 9.117 17.723c10.657-2.508 22.325.387 30.633 8.695 12.766 12.766 12.766 33.461 0 46.227l-122.488 91.3zm0 0"
			data-original="#fce06d"
		></path>
		<path
			fill="#edb05f"
			d="M248.824 261.05s-23.765 6.598-23.765 23.766c0 17.18 11.879 21.801 11.879 21.801s-25.754 13.207-15.844 38.961c3.457 8.98-.477 15.399-7.074 19.926L155.387 321.8c-12.77-12.762-12.77-33.457 0-46.227 8.3-8.3 19.976-11.199 30.629-8.695a32.507 32.507 0 0 1 9.12-17.719c9.305-9.312 22.837-11.816 34.423-7.55a32.985 32.985 0 0 1 5.32-6.993c6.738-6.742 15.691-9.922 24.527-9.527-16.52 0-20.16 26.383-10.582 35.96zm0 0"
			data-original="#edb05f"
		></path>
		<path
			fill="#ff669c"
			d="M400.363 321.8H155.387l26.539 182.598h191.898zm0 0"
			data-original="#ff669c"
		></path>
		<path
			fill="#f2f2f2"
			d="M255.102 504.398h-37.247l-16.601-182.597h47.555zM354.5 321.8l-16.602 182.598h-37.25l6.305-182.597zm0 0"
			data-original="#f2f2f2"
		></path>
		<path
			fill="#ff669c"
			d="m384.465 147.758-76.227-44.012v88.024zm0 0"
			data-original="#ff669c"
		></path>
		<path
			d="M504.758 120.715a7.6 7.6 0 0 0 7.601-7.602V7.602A7.6 7.6 0 0 0 504.758 0H151.773a7.6 7.6 0 0 0-7.601 7.602V97.73L6.73 122.965a7.601 7.601 0 0 0-6.105 8.847l11.352 61.82v179.684a7.6 7.6 0 0 0 7.601 7.602h27.14a7.6 7.6 0 0 0 7.602-7.602 7.6 7.6 0 0 0-7.601-7.601h-19.54V200.527h243.15v18.852c-14.02-4.48-29.919-1.043-40.817 9.86a40.513 40.513 0 0 0-3.172 3.57c-13.11-2.672-26.953 1.347-36.578 10.972-4.196 4.196-7.364 9.172-9.356 14.653-11.25-.559-22.234 3.601-30.394 11.765-15.078 15.078-15.676 39.223-1.809 55.031l5.883 40.485H77.125a7.603 7.603 0 0 0-7.602 7.601 7.605 7.605 0 0 0 7.602 7.602h79.172l18.105 124.574a7.603 7.603 0 0 0 7.524 6.508h191.898a7.603 7.603 0 0 0 7.524-6.508l26.199-180.262c7.383-8.418 10.66-19.195 9.84-29.714h87.37a7.6 7.6 0 0 0 7.602-7.602V143.52a7.603 7.603 0 0 0-15.203 0v136.792h-84.054a40.198 40.198 0 0 0-7.364-10.113c-8.164-8.16-19.14-12.324-30.394-11.762a40.02 40.02 0 0 0-9.356-14.656c-9.625-9.62-23.465-13.64-36.578-10.972a41.08 41.08 0 0 0-3.172-3.57c-10.875-10.876-26.718-14.321-40.707-9.891v-26.422a7.605 7.605 0 0 0-7.601-7.602H159.375v-10.332l115.684-21.242a7.599 7.599 0 0 0 6.101-8.848L269.687 82.41a7.598 7.598 0 0 0-8.847-6.101L159.375 94.938V15.203h337.781v97.91a7.6 7.6 0 0 0 7.602 7.602zM164.172 329.402h30.14l15.22 167.395H188.5zm45.406 0h31.883l5.773 167.395h-22.437zm52.867 167.395-5.773-167.395h42.406l-5.773 167.395zm46.07 0 5.774-167.395h31.883l-15.219 167.395zm58.735 0h-21.031l15.219-167.395h30.136zm-51.762-256.809a25.031 25.031 0 0 1 4.086 5.367 7.6 7.6 0 0 0 9.239 3.383c9.16-3.375 19.53-1.097 26.425 5.793a24.918 24.918 0 0 1 6.996 13.594 7.593 7.593 0 0 0 3.286 5.078 7.597 7.597 0 0 0 5.953 1.074c8.539-2.007 17.328.485 23.515 6.672 9.075 9.07 9.715 23.414 1.957 33.25h-238.14c-7.758-9.836-7.114-24.18 1.957-33.25 6.187-6.187 14.976-8.68 23.515-6.672 2.051.48 4.203.094 5.953-1.074a7.58 7.58 0 0 0 3.286-5.078 24.904 24.904 0 0 1 6.996-13.594c6.894-6.894 17.265-9.168 26.43-5.793a7.6 7.6 0 0 0 9.234-3.383 25.287 25.287 0 0 1 4.086-5.367c8.87-8.87 23.05-9.808 32.984-2.18a7.602 7.602 0 0 0 9.262 0c9.933-7.628 24.11-6.69 32.98 2.18zM218.824 99.48l-16.969 52.254-7.292 1.336-27.672 5.082 16.964-52.254zm-68.93 61.793-34.968 6.418 16.969-52.25 34.964-6.421zm-68.87 12.645-18.06 3.316L79.93 124.98l18.535-3.402 16.43-3.016-16.965 52.25zm-18.09-45.816-16.97 52.253-20.284 3.723-8.73-47.535zm81.238 57.222h-41.086l41.086-7.543zm120.664-45.156-45.98 8.445L235.82 96.36l20.29-3.726zm0 0"
			fill="#000000"
			data-original="#000000"
		></path>
		<path
			d="M312.04 97.164a7.603 7.603 0 0 0-11.402 6.582v88.024a7.599 7.599 0 0 0 7.6 7.601 7.59 7.59 0 0 0 3.801-1.02l76.227-44.011a7.599 7.599 0 0 0 0-13.164zm3.8 81.438v-61.688l53.422 30.844zM50.379 251.477h101.398a7.605 7.605 0 0 0 7.602-7.602c0-4.2-3.406-7.602-7.602-7.602H50.38a7.603 7.603 0 0 0-7.602 7.602 7.605 7.605 0 0 0 7.602 7.602zM50.379 292.09h64.39c4.2 0 7.602-3.402 7.602-7.602s-3.402-7.601-7.601-7.601H50.379a7.603 7.603 0 0 0 0 15.203zm0 0"
			fill="#000000"
			data-original="#000000"
		></path>
	</g>
</svg>
